<?xml version="1.0" encoding="UTF-8" standalone="no"?>
<!-- Created with Inkscape (http://www.inkscape.org/) -->

<svg
   xmlns:dc="http://purl.org/dc/elements/1.1/"
   xmlns:cc="http://creativecommons.org/ns#"
   xmlns:rdf="http://www.w3.org/1999/02/22-rdf-syntax-ns#"
   xmlns:svg="http://www.w3.org/2000/svg"
   xmlns="http://www.w3.org/2000/svg"
   xmlns:sodipodi="http://sodipodi.sourceforge.net/DTD/sodipodi-0.dtd"
   xmlns:inkscape="http://www.inkscape.org/namespaces/inkscape"
   id="svg4066"
   viewBox="0 0 823.00033 760.91627"
   sodipodi:docname="BasicSquirrel.svg"
   version="1.1"
   inkscape:version="0.91 r13725"
   width="823.00031"
   height="760.91626">
  <defs
     id="defs4068">
    <linearGradient
       id="linearGradient4883"
       y2="225.83"
       gradientUnits="userSpaceOnUse"
       x2="487.48999"
       gradientTransform="translate(-289.67,297.3)"
       y1="204.58"
       x1="383.76999"
       inkscape:collect="always">
      <stop
         id="stop3951"
         style="stop-color:#e9c6af"
         offset="0" />
      <stop
         id="stop3953"
         style="stop-color:#e9c6af;stop-opacity:0"
         offset="1" />
    </linearGradient>
    <linearGradient
       id="linearGradient4886"
       y2="483.66"
       gradientUnits="userSpaceOnUse"
       x2="668.90997"
       gradientTransform="translate(-289.67,297.3)"
       y1="482.16"
       x1="703.21997"
       inkscape:collect="always">
      <stop
         id="stop3933"
         style="stop-color:#e9c6af"
         offset="0" />
      <stop
         id="stop3935"
         style="stop-color:#e9c6af;stop-opacity:0"
         offset="1" />
    </linearGradient>
    <linearGradient
       id="linearGradient4889"
       y2="359.31"
       gradientUnits="userSpaceOnUse"
       x2="721.87"
       gradientTransform="translate(-289.67,297.3)"
       y1="334.48001"
       x1="763.03003"
       inkscape:collect="always">
      <stop
         id="stop3923"
         style="stop-color:#e9c6af"
         offset="0" />
      <stop
         id="stop3925"
         style="stop-color:#e9c6af;stop-opacity:0"
         offset="1" />
    </linearGradient>
    <linearGradient
       id="linearGradient4892"
       y2="381.81"
       gradientUnits="userSpaceOnUse"
       x2="603.09003"
       gradientTransform="matrix(0.99657,0.082737,-0.082737,0.99657,-258.32,246.06)"
       y1="312.39001"
       x1="593.09998"
       inkscape:collect="always">
      <stop
         id="stop3913"
         style="stop-color:#e9c6af"
         offset="0" />
      <stop
         id="stop3915"
         style="stop-color:#e9c6af;stop-opacity:0"
         offset="1" />
    </linearGradient>
    <linearGradient
       id="linearGradient4895"
       y2="294.25"
       gradientUnits="userSpaceOnUse"
       x2="678.65002"
       gradientTransform="matrix(1.0383,0,0,1.0383,-315.49,286.1)"
       y1="315.57001"
       x1="678.32001"
       inkscape:collect="always">
      <stop
         id="stop3941"
         style="stop-color:#d38d5f"
         offset="0" />
      <stop
         id="stop3943"
         style="stop-color:#d38d5f;stop-opacity:0"
         offset="1" />
    </linearGradient>
    <linearGradient
       id="linearGradient4898"
       y2="422.60999"
       gradientUnits="userSpaceOnUse"
       x2="720.19"
       gradientTransform="translate(-290,297.13)"
       y1="437.85001"
       x1="698.35999"
       inkscape:collect="always">
      <stop
         id="stop3893"
         style="stop-color:#c8beb7"
         offset="0" />
      <stop
         id="stop3895"
         style="stop-color:#c8beb7;stop-opacity:0"
         offset="1" />
    </linearGradient>
    <linearGradient
       id="linearGradient4901"
       y2="440.56"
       gradientUnits="userSpaceOnUse"
       x2="571.47998"
       gradientTransform="translate(-289.67,297.3)"
       y1="436.75"
       x1="649.54999"
       inkscape:collect="always">
      <stop
         id="stop3883"
         style="stop-color:#c8beb7"
         offset="0" />
      <stop
         id="stop3885"
         style="stop-color:#c8beb7;stop-opacity:0"
         offset="1" />
    </linearGradient>
    <linearGradient
       id="linearGradient4904"
       y2="275.10999"
       gradientUnits="userSpaceOnUse"
       x2="501.92999"
       gradientTransform="translate(-289.67,297.3)"
       y1="291.62"
       x1="550.63"
       inkscape:collect="always">
      <stop
         id="stop3865"
         style="stop-color:#deaa87"
         offset="0" />
      <stop
         id="stop3867"
         style="stop-color:#deaa87;stop-opacity:0"
         offset="1" />
    </linearGradient>
  </defs>
  <sodipodi:namedview
     id="base"
     fit-margin-left="3"
     inkscape:zoom="0.525"
     borderopacity="1.0"
     inkscape:current-layer="layer1"
     inkscape:cx="1027.6562"
     inkscape:cy="107.95428"
     inkscape:window-maximized="1"
     showgrid="false"
     fit-margin-right="3"
     inkscape:snap-global="false"
     showguides="true"
     bordercolor="#666666"
     inkscape:window-x="4"
     inkscape:guide-bbox="true"
     inkscape:window-y="1"
     fit-margin-bottom="3"
     inkscape:window-width="1916"
     inkscape:pageopacity="0.0"
     inkscape:pageshadow="2"
     pagecolor="#ffffff"
     inkscape:document-units="px"
     inkscape:window-height="1035"
     fit-margin-top="3" />
  <g
     id="layer1"
     inkscape:label="Layer 1"
     inkscape:groupmode="layer"
     transform="translate(219.89273,-449.95205)">
    <g
       id="g4931"
       transform="matrix(1.9682223,0,0,1.8843203,-440.44939,-411.32227)">
      <path
         id="path3862"
         style="fill:#000000"
         inkscape:connector-curvature="0"
         d="m 431.75,856.65 c -0.6021,-3.1497 -0.149,-4.2557 1.7435,-4.2557 1.8279,0 2.4529,2.0489 1.4488,4.75 -1.1347,3.0526 -2.5563,2.8324 -3.1923,-0.4943 z" />
      <path
         id="path3864"
         style="fill:#000000"
         inkscape:connector-curvature="0"
         d="m 414.21,854.37 c -1.0693,-2.8348 -0.6703,-3.9759 1.3903,-3.9759 1.6242,0 1.8874,2.7456 0.477,4.9759 -0.7609,1.2032 -1.1059,1.0184 -1.8673,-1 z" />
      <path
         id="path3866"
         style="fill:#000000"
         inkscape:connector-curvature="0"
         d="m 399.81,851.17 c -1.843,-2.8127 -0.9157,-5.142 1.8361,-4.612 2.353,0.4531 2.8552,2.8207 1.1057,5.2133 -1.2809,1.7517 -1.4185,1.7236 -2.9418,-0.6013 z" />
      <path
         id="path3868"
         d="m 212.96,458.67 c -17.997,0.53306 -35.978,6.298 -49.125,18.938 2.2689,0.42258 9.1264,-1.3698 13.281,-1.625 3.5466,-0.49398 7.1068,-0.76137 10.688,-0.8125 -24.186,2.5856 -47.533,14.733 -61.5,34.938 8.2608,0.95982 14.761,-5.7448 22.688,-6.9062 -18.756,8.7058 -31.195,28.107 -33.906,48.375 -0.1958,5.0416 -2.7762,11.525 0.4063,16 1.6924,1.9049 4.5884,-2.5878 2.875,1 -2.5988,8.2168 -5.6363,17.11 -4.5625,25.781 3.0944,3.401 6.9779,-2.2192 9.4687,-4.0625 3.1187,-3.5589 -2.5449,3.2323 1.625,3.6875 13.83,-1.2256 27.308,-6.1194 40.688,-9.7812 9.2323,-1.7726 15.991,-8.796 24.5,-11.938 10.188,0.39464 17.018,-9.031 23.938,-15.031 -0.2441,2.1339 -0.3836,10.684 -1.451,11.014 -0.056,-3.073 -6.6881,0.32043 -11.967,4.2812 -10.703,7.0137 -18.942,14.24 -24.738,26.33 -2.102,-2.9195 -5.6137,-0.87202 -5.8438,2.3125 -1.6086,4.8358 -2.8732,11.038 -3.9062,15.281 -0.077,-2.9532 1.7372,-10.4 -3.375,-9.2188 -5.395,5.4462 -7.832,13.533 -9.9063,20.812 -1.5708,7.0007 -2.6381,14.515 -3.8437,21.344 -6.1537,-0.20613 -5.3039,8.0582 -6.3438,12.094 -1.2375,6.8921 0.605,14.686 -0.1875,21.062 -4.6896,2.7106 -0.1526,9.0015 1.125,12.688 2.1813,5.5014 6.4291,10.669 8.6563,15.594 -3.8261,3.6631 2.3538,8.0327 4.75,10.531 4.6832,3.429 9.0043,9.0327 14.875,9.9688 0.5639,-0.3276 1.0772,-0.7059 1.5625,-1.125 -0.8449,2.5114 -1.4161,5.1013 -1.6875,7.6562 -1.9155,20.181 3.3944,40.934 12.719,58.688 3.1941,4.1214 5.5377,10.53 10.875,12.094 3.3524,-0.2421 5.1851,-4.919 9.0313,-2.7813 1.8105,0.7695 4.0257,-1.6665 3.8437,1.4688 1.0741,3.0261 2.4852,11.114 7.0938,7.7187 1.2593,-4.1977 7.0782,-1.1849 8.5625,-5.1875 0.8407,3.2471 6.0318,8.0881 8,3.1875 -0.082,-2.377 0.1701,-5.5879 3.4375,-4.7187 5.01,-0.4373 4.2666,-6.8348 1.3437,-9.3438 -1.0275,-2.6562 -5.9743,-4.3264 -6.5937,-4.8437 3.8196,-3.6685 -0.1535,-9.282 -4.375,-10.469 -6.1721,-2.1311 -10.043,-7.3058 -12.469,-13.094 1.2676,1.0916 2.7329,1.928 4.125,2.3125 11.031,5.7223 24.703,5.5838 36.062,1 9.3351,-4.1613 16.416,-13.656 23.656,-19.094 -0.1551,4.5509 5.4186,3.4929 7.8125,1.5625 5.313,-2.557 11.015,-3.7833 16.75,-3.9375 -2.0712,2.9929 3.0363,6.9656 4.0625,10 1.3984,8.4081 -4.192,17.63 -0.125,25.875 2.7449,5.549 9.1627,9.4021 11.469,15.531 1.8664,2.6658 5.4872,2.9324 7.8438,5 3.1739,0.9238 4.0855,-4.0405 5.0937,-4.8438 1.8165,2.9247 4.7726,9.1573 6.7188,8.875 1.0329,-3.3015 2.865,-6.0509 4.9375,-8.5 0.3514,-2.5392 1.9158,2.9257 3.8125,3.0313 1.064,1.8975 0.8347,5.9956 4.3437,4.7187 4.6596,-3.6583 7.713,-10.396 4.5625,-16.062 -1.1232,-4.4931 0.364,-10.018 -3.8437,-13.344 -2.2449,-2.4964 -5.2851,-4.0202 -8.25,-5.4688 3.8968,-2.7849 7.0173,-7.1179 10.312,-10.094 0.7052,-0.012 1.2402,-0.1922 1.625,-0.5 -0.2021,2.1511 0.1238,4.1327 2,5.5312 3.1415,0.6785 1.1981,5.4571 2.9062,7.6563 4.0475,14.624 19.877,23.388 20.906,39.188 0.4088,6.8395 2.3292,15.144 9.9062,17.156 5.7178,0.6562 2.0221,9.2153 7.5938,9.8125 3.4353,0.4872 8.6611,-0.115 10.062,-2.9375 0.2904,3.0496 0.1043,10.308 5.1875,7.5938 2.973,-3.6086 6.8767,3.6569 9.75,-0.6563 0.8625,-3.9677 0.9784,2.2126 2.8437,3.0938 2.5494,3.0268 5.2775,-0.3397 7.5625,-1.5313 2.398,-0.9204 4.1157,3.4072 6.2813,0.5 3.7943,-6.2756 -1.7979,-12.678 -6.5313,-16.438 -3.3589,-1.9159 2.5373,-1.823 3.25,-4.1875 2.8706,-5.7644 -3.6597,-11.061 -7.9375,-14.062 -4.1372,-2.5527 -8.9526,-3.9663 -13.844,-3.9687 2.4522,-15.53 2.3091,-31.733 -1.5625,-47.094 8.2892,-6.0263 18.795,-12.168 29.25,-8.0312 -2.7716,3.6388 2.4411,5.5897 5.5,5.0625 7.3519,0.066 15.108,0.02 21.844,-2.5 2.6978,4.4114 8.4911,-0.1016 11.906,-1.1875 5.5377,-2.0526 10.658,-6.2766 16.719,-6.4688 1.1381,1.2024 -2.3598,2.6735 -2.6357,5.8575 2.722,-0.922 7.4835,2.8807 6.7354,5.1417 0.1456,0.9438 2.551,1.5833 2.9186,1.3476 2.3804,-1.5264 8.6319,1.5834 7.7438,5.3595 1.531,0.2229 5.1116,-0.1413 6.0959,1.4778 0.1116,0.1836 0.6147,-0.1184 0.9639,0.1568 2.1384,-0.6325 3.963,-2.9038 6.2858,-4.9486 1.8111,-1.85 2.752,-5.8973 -0.6077,-9.736 -2.1082,-2.1794 -0.7841,-1.9073 1.0938,-2.8438 5.1285,-5.1921 1.0898,-15.031 -5.9063,-16.188 -5.5196,-1.3233 -10.098,-4.2025 -14.906,-6.8125 -8.1119,-2.258 -17.471,-1.2395 -24.75,-5.9375 -2.0978,-0.1387 -3.6543,2.237 -5.7188,0.25 -7.615,-4.3486 -12.558,-12.437 -14.844,-20.562 -3.3726,-1.786 2.5675,-1.3803 4.0312,-2.125 6.303,0.21002 14.799,-3.334 13.875,-10.969 0.4606,-6.7445 -4.1782,-11.894 -6.25,-17.719 -2.1771,-10.259 2.7605,-22.113 -2.4687,-32.156 -5.0214,-15.088 -19.792,-25.708 -32.062,-32.844 3.6102,-2.916 -0.029,-8.7085 -0.062,-12.625 -3.2684,-13.103 0.9666,-26.18 2.1875,-39.219 0.1254,-2.3068 0.189,-6.4002 -3.0625,-6.3125 -2.1369,-14.205 -6.1187,-28.519 -12.906,-41.125 -0.6829,-0.91579 -2.0707,-1.5802 -3.1875,-1.0938 -3.9782,2.9447 -3.0088,9.303 -3.0312,13.719 1.1707,5.4882 -0.148,2.5934 -1.5,-1.0938 -0.6991,-2.8497 -2.8146,-9.2837 -6.6875,-6.0625 -3.8878,6.7313 -3.6075,15.29 -2,22.719 -2.1373,-9.0579 -3.8555,-3.9772 -5.5938,2.0625 -4.8107,17.192 5.2432,34.437 3.0938,51.812 -2.7984,-12.327 -2.87,-25.449 -6.4688,-37.625 -2.3824,-2.9018 -5.2893,2.9438 -3.8125,-3.1562 0.7386,-8.039 -1.263,-16.328 -6.2812,-22.656 -2.3967,-0.35069 -3.4029,0.9984 -4.1875,-2.2188 -2.1377,-2.8505 -4.7067,-9.264 -9.1563,-7 -1.0718,1.8161 0.1813,5.9298 -1.1562,1.9062 -1.3125,-2.7559 -2.9556,-9.7631 -7.2188,-7.25 -2.7734,5.3596 -0.3449,12.116 -0.062,17.875 -1.1957,-2.6086 -0.8678,-8.6922 -5.2812,-7.2812 -3.1889,3.9933 -2.8251,10.072 -2.1875,14.938 -2.26,-2.7192 -4.9548,-15.948 -6.125,-7.4062 -3.4117,8.4756 -0.8105,19.411 2.1875,26.375 -1.4651,-3.2202 -7.2908,-4.8659 -7.75,-0.15625 -0.6953,7.1695 3.3091,15.4 6.4062,20.438 -5.1789,1.9094 -2.3959,8.9821 -0.9687,12.656 4.1628,11.771 16.084,20.441 15.344,33.906 0.4281,2.8352 0.4271,7.161 -3.6562,6.5312 -3.7626,-0.40026 -5.2442,3.7369 -4.4063,6.5938 -3.9342,-1.1607 -6.0555,3.5307 -4.1875,6.5625 -8.7105,-7.442 -16.485,-17.005 -27.531,-20.875 -1.5613,3.7872 -4.3276,0.0978 -7,-0.5625 -12.385,-4.9717 -25.962,-9.2808 -39.5,-7.9688 -2.9005,-0.10959 -2.2043,3.3298 -5.0938,2.8438 -11.074,1.952 -22.254,5.757 -31.688,12.031 3.5027,-3.7895 7.0291,-7.5551 11.156,-10.688 4.6541,-3.8114 11.151,-4.2209 15.781,-7.875 2.114,-2.4526 -4.0191,-4.022 -0.062,-5.0625 13.003,-9.1121 23.153,-21.923 30.062,-36.094 1.4804,-4.134 -4.1458,-4.8525 -6.3437,-2.3438 -1.3309,0.59218 -7.3732,5.1516 -4.5938,2.6875 12.437,-10.717 20.835,-25.877 22.344,-42.406 -1.0034,-0.85824 -6.1176,6.4793 -8.625,8.625 -0.745,-0.2658 0.5431,-5.0101 0.2187,-6.9062 1.4115,-20.872 -10.501,-39.973 -24.594,-54.156 -3.3906,-2.4 -7.9566,-7.7684 -12.406,-5.4375 -4.9277,-3.044 -8.5451,-9.9292 -14.438,-12.188 -4.3984,0.62879 -2.2956,6.5592 -2.5625,9.0625 -10.841,-7.7808 -24.677,-9.84 -37.812,-9.75 z M 386.12,576.3 c 5.2035,1.2082 8.7509,6.7139 10.594,11.531 1.6569,6.9188 4.0319,14.849 2.9375,21.594 -5.6847,-0.22357 -8.5672,5.1932 -12.594,7.8438 -2.8472,0.0558 -5.7637,0.89145 -7.7188,3.0938 -1.5168,-8.1187 -6.4013,-15.369 -7.7187,-23.469 0.5187,-8.4328 7.4811,-14.334 12.938,-20.031 0.4885,-0.25195 1.001,-0.52871 1.5625,-0.5625 z m 33.688,64.094 c 9.3355,0.95261 19.003,9.9323 15.375,19.969 -1.4578,6.9724 -10.496,6.7665 -16.062,6.9375 -8.0165,-0.0888 -12.906,-9.4956 -10.156,-16.656 1.1988,-4.6362 5.912,-9.7332 10.844,-10.25 z m 35.812,41.438 c 0.6928,-0.0482 1.4439,-0.0152 2.25,0.0937 4.1414,0.25149 10.316,-1.0122 12.312,3 -3.1029,-0.15868 -5.32,3.8349 -8.3438,1.25 -4.5841,-1.9679 -7.5525,3.5542 -6.4062,7.5 1.4694,3.6021 -0.8094,4.8935 -4.2188,4.5938 -3.216,0.28035 -9.3375,-4.1999 -10.188,1.1562 0.1601,3.774 3.5724,5.0462 5.8786,6.2877 -1.8615,0.41774 -2.7523,-0.49042 -5.0293,-1.3949 -4.4219,-0.45315 -8.0501,-6.1695 -4.943,-10.143 4.4535,-3.2775 6.981,-9.5179 12.875,-10.781 2.0555,-0.66273 3.7338,-1.4178 5.8125,-1.5625 z m -34.156,23.656 c 6.5095,2.0515 13.471,1.9371 20.219,2.6562 -3.0377,3.5541 1.5506,8.3996 2.4687,12.031 0.8765,2.7647 4.186,6.35 3.5938,8.5938 -3.3824,3.3075 1.853,8.1205 4.1562,10.625 3.2996,3.6817 8.2644,5.2468 12.25,7.4375 3.1092,4.9194 10.509,2.5963 15.312,2.25 4.2209,-0.7107 11.223,-1.7733 3.4688,0.1875 -4.2668,2.3974 -9.0198,-0.7735 -13.156,1.9375 -4.3468,1.1199 -9.4251,2.6102 -13.75,2.4375 -1.845,-4.687 -8.7377,-3.3945 -12.844,-4.25 -9.2587,-0.5131 -19.1,-0.6581 -27.062,4.5625 -2.4918,1.6811 -3.9615,1.4981 -2.5938,-1.6875 2.0911,-11.144 9.4843,-24.265 1.4688,-34.781 -1.6938,-2.4333 -5.0912,-4.9995 -6.5313,-6.4375 4.2232,2.9148 12.273,0.99251 10.29,-3.6583 0.5666,-0.91282 1.049,-1.5081 2.7095,-1.9042 z"
         sodipodi:nodetypes="cccccccccccccccccccccccccccccccccccccccccccccccccccccccccccccccccccccccccccccccccccccscscccccccccccccccccccccccccccccccccccccccccccccccccccccccccccccccccccccccccccccccccccccccscccccccccccccccccc"
         style="fill:#000000"
         inkscape:connector-curvature="0" />
      <path
         id="path3872"
         style="fill:#000000"
         inkscape:connector-curvature="0"
         d="m 434.13,836.01 c -0.8179,-0.9856 -0.8604,-1.6395 -0.1354,-2.0876 0.5806,-0.3588 1.333,0.071 1.6721,0.9541 0.8441,2.1999 -0.084,2.8843 -1.5367,1.1335 z" />
      <path
         id="path3874"
         style="fill:#000000"
         inkscape:connector-curvature="0"
         d="m 217.85,818.41 c -1.514,-2.6608 -1.5331,-3.1392 -0.1786,-4.4937 2.0566,-2.0566 3.1145,-1.9056 3.8959,0.5564 0.726,2.2874 -0.1409,6.9314 -1.292,6.9215 -0.402,0 -1.4934,-1.3464 -2.4253,-2.9842 z" />
      <path
         id="path3876"
         style="fill:#000000"
         inkscape:connector-curvature="0"
         d="m 235.24,818.2 c -0.66,-0.66 -1.2,-1.7911 -1.2,-2.5136 0,-0.7224 -0.5513,-2.1962 -1.225,-3.275 -1.8446,-2.9538 0.2811,-4.7625 3.7433,-3.185 2.3073,1.0513 2.5038,1.5589 1.9058,4.9229 -0.8132,4.5747 -1.6495,5.6254 -3.2241,4.0507 z" />
      <path
         id="path3878"
         style="fill:#000000"
         inkscape:connector-curvature="0"
         d="m 202.04,813.37 c 0,-1.1173 -0.675,-2.2904 -1.5,-2.607 -0.825,-0.3166 -1.5,-1.1473 -1.5,-1.8462 0,-0.6988 0.675,-1.8307 1.5,-2.5154 3.0375,-2.521 5.7347,2.6186 3.893,7.4182 -0.8626,2.2477 -2.393,1.9602 -2.393,-0.4496 z" />
      <path
         id="path3884"
         sodipodi:nodetypes="ssss"
         inkscape:connector-curvature="0"
         style="fill:#000000"
         d="m 506.15,767.13 c 1.864,-1.7274 3.741,-0.2665 3.741,1.3109 0,0.8071 -4.5789,2.5663 -6.3572,2.2774 -2.5811,-0.4192 1.2189,-2.2933 2.6162,-3.5883 z" />
      <path
         id="path3886"
         sodipodi:nodetypes="ssss"
         inkscape:connector-curvature="0"
         style="fill:#000000"
         d="m 494.37,762.39 c 2.362,-2.1438 3.0484,-2.0457 3.6878,-1.3047 0.6121,0.7095 2.6443,2.1754 -0.7258,3.1187 -7.0084,1.9617 -4.5252,-0.3952 -2.962,-1.814 z" />
      <path
         id="path3809"
         style="fill:#e9c6af"
         inkscape:connector-curvature="0"
         d="m 386.06,575.47 c -1.9477,0.0932 -3.8432,1.4521 -5.9369,4.0965 -1.7418,2.2 -4.346,5.2504 -5.7588,6.7977 -1.4374,1.5744 -2.9882,4.8239 -3.5324,7.3617 -0.8784,4.0957 -0.696,5.1816 1.8107,11.072 1.5266,3.5874 3.4982,9.129 4.3933,12.349 l 1.6327,5.8775 2.1669,-2.3748 c 1.3785,-1.4874 3.2296,-2.3451 5.0167,-2.3451 1.9532,0 3.4525,-0.8069 4.8682,-2.6122 2.47,-3.1496 5.4273,-4.9119 8.3117,-4.9573 1.8978,-0.0299 2.1373,-0.50275 2.1373,-4.3339 0,-5.3507 -2.5603,-18.032 -4.334,-21.462 -0.7266,-1.4052 -2.7692,-4.0872 -4.5417,-5.9666 -2.2958,-2.4343 -4.286,-3.596 -6.2337,-3.5028 z" />
      <path
         id="path3811"
         sodipodi:nodetypes="csssscccsscccsccccc"
         inkscape:connector-curvature="0"
         style="fill:#e9ddaf"
         d="m 456.61,680.89 c -2.1812,0.0485 -4.3795,0.37598 -4.5783,0.69771 -0.2648,0.42844 -2.1426,0.97845 -2.8529,0.97845 -2.0373,0 -7.4431,3.9696 -8.7355,6.4195 -0.6453,1.2232 -2.6914,3.4116 -3.6991,3.9509 -1.2536,0.67089 -1.8495,1.7969 -1.8495,3.8682 -0.7488,6.1716 5.4136,7.6918 8.1082,8.6654 1.0903,0.79343 4.2925,1.6344 5.8582,0.24783 -1.3253,0 -8.059,-3.6025 -7.0681,-7.2952 0.1734,-0.64597 1.9448,-0.55767 2.8488,-0.3839 3.4929,0.67146 5.6905,2.9759 8.7892,2.3946 2.396,-0.38397 5.5352,-0.65644 6.2218,-1.7836 -1.441,-1.1917 -3.0678,-3.2009 -3.5426,-4.8385 -1.8598,-5.1944 1.6592,-7.6613 5.3629,-5.9738 1.881,0.85702 2.5772,1.0019 4.2728,-0.18574 1.9991,-1.4724 6.2399,-2.3067 9.0621,-1.4821 0,-0.69573 -0.4688,-2.1786 -1.1649,-3.0766 -1.9827,-0.73211 -5.2606,-1.6059 -6.5429,-1.6667 -3.7447,-0.33625 -7.7054,-0.54104 -10.49,-0.53664 z" />
      <path
         id="path3813"
         style="fill:#e9ddaf"
         inkscape:connector-curvature="0"
         d="m 419.43,639.67 c -2.618,0.006 -4.7763,1.3279 -7.5105,4.0621 -3.5137,3.5137 -4.1625,4.7461 -4.7342,9.3224 -0.567,4.5376 -0.344,5.8377 1.5196,9.1762 3.442,6.1661 9.7472,7.7996 19.931,5.1726 5.3432,-1.3784 7.0812,-3.8232 7.715,-10.9 0.5177,-5.7805 -3.1335,-11.338 -9.5269,-14.524 -3.0494,-1.5196 -5.3574,-2.3128 -7.3936,-2.3087 z m -0.4091,3.7698 c 2.644,0.0149 5.3668,1.5254 7.7442,4.4712 1.7644,2.1862 6.2627,14.281 5.5818,14.992 -0.3559,0.37139 -4.3908,0.97878 -11.397,1.695 -4.5146,0.46148 -5.1152,0.2619 -7.715,-2.3379 -2.4708,-2.4707 -2.8347,-3.4614 -2.8347,-8.095 0,-4.5969 0.3704,-5.6599 2.747,-8.0365 1.814,-1.814 3.8175,-2.7002 5.874,-2.6886 z" />
      <path
         id="path3815"
         d="m 412.89,645.84 c -4.7735,5.3808 -3.8714,13.207 0.094,17.219 5.5818,4.4782 13.506,4.2981 20.218,0.18583 0.7281,-12.8 -2.853,-15.901 -6.6689,-17.982 -4.3634,-2.6887 -8.321,-3.5284 -13.643,0.57759 z"
         sodipodi:nodetypes="cccccc"
         style="fill:#000000"
         inkscape:connector-curvature="0" />
      <path
         id="path3817"
         d="m 395.89,691.97 c 7.1043,4.7429 15.861,7.4199 22.354,15.076 2.4171,5.9895 -7.1548,5.22 -10.741,3.5485 -1.4115,-0.2738 -0.8227,0.65189 0.3536,1.4388 7.3084,4.889 11.992,12.41 9.6883,23.071 -1.2476,7.4119 -6.4555,17.397 -5.6497,28.944 6.7187,-3.2094 13.872,-9.6121 21.571,-8.9432 1.8661,0.1114 4.2662,-1.4912 10.588,2.5509 -2.7039,7.6834 17.291,2.3095 19.929,2.5034 2.1653,-0.068 3.2288,-2.5808 9.021,-0.2715 5.9745,-1.8311 17.354,-6.5094 23.549,-8.6395 -1.2874,-1.7054 -3.4551,-3.1998 -3.1698,-3.4499 -6.572,-1.7278 -21.094,4.8257 -27.493,0.4568 -2.2209,-4.4677 -7.7412,-3.109 -10.559,-6.3602 -3.6434,-3.1286 -8.7667,-6.9448 -7.7773,-12.293 3.4302,-1.4848 -1.218,-6.6165 -2.472,-8.8574 -1.1083,-4.3097 -5.6852,-8.4397 -2.8111,-12.856 -8.0857,-1.5188 -20.506,0.7708 -26.728,-6.8179 -5.7788,-4.3566 -12.18,-7.999 -18.908,-10.554 -1.4373,-0.48174 -1.6113,0.59725 -0.7447,1.4533 z"
         sodipodi:nodetypes="cccscccccccccccccccc"
         style="fill:#fff6d5"
         inkscape:connector-curvature="0" />
      <path
         id="path3827"
         sodipodi:nodetypes="sssssscssssscccssssssscsssss"
         inkscape:connector-curvature="0"
         style="fill:#a05a2c"
         d="m 348.39,807.37 c 0,-1.0807 -0.8898,-2.4411 -1.9774,-3.0231 -1.0875,-0.5821 -2.3457,-2.4798 -2.7959,-4.2172 -1.1805,-4.5555 -3.2267,-4.7954 -3.2267,-0.3782 0,1.9708 -0.3778,3.5833 -0.8395,3.5833 -0.4617,0 -1.3844,1.196 -2.0505,2.6578 l -1.211,2.6579 -2.4495,-3.6048 c -1.3472,-1.9827 -2.4495,-4.3037 -2.4495,-5.1579 0,-2.7902 -1.4922,-1.6361 -3.3102,2.5603 -1.6302,3.7628 -1.9271,3.9846 -3.4859,2.6032 -0.9371,-0.8305 -2.5666,-1.669 -3.621,-1.8633 -1.0877,-0.2004 -2.3289,-1.6512 -2.8688,-3.3532 -2.6492,-5.1789 -9.1836,-8.8986 -10.214,-12.573 -2.3206,-6.5284 0.1785,-14.079 0.6644,-21.096 0.2839,-3.9497 -0.1616,-5.3738 -2.8938,-9.25 -1.7762,-2.5199 -2.75,-4.5816 -2.1641,-4.5816 2.3062,0 14.867,3.2741 23.678,6.172 6.076,1.9983 12.211,3.2362 17.75,3.5818 4.6558,0.2904 8.465,0.9412 8.465,1.4462 0,0.5049 -0.368,0.6906 -0.8178,0.4126 -0.4499,-0.278 -1.4624,0.4521 -2.25,1.6226 -1.7946,2.6665 -9.1752,9.7356 -10.182,9.7523 -2.056,0.034 -0.2991,1.9121 3.3127,3.5408 5.4682,2.4658 9.256,7.0467 8.597,10.397 -0.2785,1.416 0.1775,4.6862 1.0133,7.2671 1.4549,4.4927 1.4225,4.8653 -0.7608,8.75 -2.4799,4.4123 -3.9122,5.1785 -3.9122,2.0927 z" />
      <path
         id="path3829"
         style="fill:#fff6d5"
         inkscape:connector-curvature="0"
         d="m 225.81,775.1 c -11.318,-4.1242 -14.5,-6.316 -14.5,-9.9891 0,-2.3326 0.3277,-2.4487 6.912,-2.4487 7.9221,0 19.806,-2.1855 25.441,-4.6787 7.2962,-3.228 19.584,-17.369 18.249,-21.002 -0.297,-0.808 -1.7791,-1.4691 -3.2936,-1.4691 -2.7267,0 -2.7343,-0.019 -0.7813,-1.9564 2.3377,-2.3191 13.751,-6.8963 21.414,-8.5878 6.3689,-1.4059 17.11,0.2133 23.271,3.5081 4.4236,2.3657 6.1947,1.5952 5.4361,-2.3652 -0.3036,-1.5855 -0.3191,-3.126 -0.034,-3.4234 0.2848,-0.29734 3.0754,0.55603 6.2014,1.8964 3.126,1.3403 9.6305,4.1421 14.454,6.2262 4.8815,2.1089 11.533,4.1073 15,4.5067 l 6.2294,0.7175 0.2874,9.0253 c 0.2571,8.0762 0.502,9.0839 2.3291,9.5828 1.4577,0.3981 1.9476,1.2514 1.7126,2.9832 -0.3044,2.2436 -0.8617,2.4484 -7.4245,2.7292 -6.0586,0.2592 -8.5425,-0.2408 -17,-3.4222 -23.852,-8.9724 -31.287,-9.1341 -49.655,-1.08 -1.4071,0.617 -1.75,0.2339 -1.75,-1.9549 0,-1.4973 -0.4909,-2.7223 -1.091,-2.7223 -0.6,0 -4.9875,4.0476 -9.75,8.9947 -11.423,11.866 -18.051,15.326 -30.142,15.735 -4.6845,0.1584 -9.8673,-0.2039 -11.517,-0.8051 z" />
      <path
         id="path3850"
         d="m 420.87,511.67 c -0.7715,-0.0592 -1.2964,1.5686 -1.75,4.5938 -0.9664,6.4439 0.038,11.618 4.0625,21.406 3.8493,9.3627 4.6283,14.114 1.1562,7 -1.2079,-2.475 -3.839,-7.425 -5.8437,-11 -2.0047,-3.575 -4.4133,-8.868 -5.3438,-11.75 -1.8867,-5.8437 -2.8846,-5.9474 -4.4062,-0.46875 -2.3188,8.3489 -0.8204,18.877 4.0312,28.344 1.5831,3.089 2.3226,6.5874 2.5625,11.875 0.3587,7.9059 0.1476,7.7048 -3.1562,-3 -0.9336,-3.025 -3.0769,-8.8102 -4.7813,-12.875 l -3.0937,-7.4062 -1.2188,3.4062 c -1.9455,5.379 -1.5953,14.482 1.0938,27.406 2.5373,12.195 2.9517,19.418 1.5937,27.469 l -0.75,4.5 -1.25,-3 c -1.4986,-3.5813 -2.4744,-8.8346 -4.6875,-25.5 -1.3869,-10.443 -2.9662,-18.062 -3.3437,-16 -0.05,0.275 -0.9688,2.975 -2.0313,6 l -1.9375,5.5 0.1875,-13 c 0.1745,-12.452 0.07,-13.253 -2.6875,-19 -2.8249,-5.8872 -2.9043,-5.9436 -3.5,-3 l -0.5937,3 -1.7813,-4.5 c -1.6764,-4.2799 -5.8392,-10 -7.2812,-10 -0.3702,0 -0.3501,1.4625 0.031,3.25 0.9403,4.4062 3.5089,20.896 3.5312,22.656 0.038,3.0341 -1.1243,0.006 -3.5625,-9.375 -3.2201,-12.39 -7.2964,-22.715 -8.6562,-21.875 -1.6396,1.0133 -0.1243,16.673 2.6562,27.312 1.3604,5.2056 2.3847,9.584 2.25,9.7188 -0.5606,0.56063 -8.6515,-19.498 -9.25,-22.938 -0.8709,-5.0045 -2.1278,-3.886 -2.9062,2.5312 -0.4399,3.6261 -0.1779,6.5624 0.9062,9.5938 0.8607,2.4066 1.5625,5.0144 1.5625,5.8125 0,2.1635 -4.6618,-3.7682 -6.9062,-8.7812 l -1.9375,-4.3125 -0.7188,2.7812 c -1.1803,4.7027 0.2212,14.005 2.9688,19.812 1.4357,3.0348 2.5937,6.549 2.5937,7.8125 0,1.9673 -0.4837,1.6497 -3.4375,-2.2188 -1.8971,-2.4845 -4.1471,-4.7977 -5,-5.125 -3.8233,-1.4672 -0.1886,14.406 4.5313,19.781 3.4283,3.9046 3.9317,6.1628 1,4.5938 -2.5175,-1.3473 -2.7521,-1.3176 -3.4375,0.46875 -1.0712,2.7913 3.0749,13.353 7.625,19.406 6.8514,9.1145 9.1352,14.502 9.5625,22.625 0.4104,7.8044 -0.294,9.0552 -5.3438,9.625 -2.7544,0.31078 -2.9608,0.6134 -2.6562,3.7188 0.3096,3.1573 0.16,3.367 -2.25,2.9062 -3.2565,-0.62251 -3.4499,1.6204 -0.5938,7.2188 1.1,2.1562 2,4.1925 2,4.5312 0,0.33872 -5.1054,-4.1654 -11.375,-10.031 -12.502,-11.697 -18.357,-15.043 -21,-15.781 -0.4332,0.45694 -0.5675,1.9206 -0.9062,2.4688 -0.7859,-0.41021 -1.8441,-0.73528 -3.625,-1.6562 -15.143,-7.8307 -37.705,-11.615 -43.344,-9.3125 -0.1141,0.61076 0.385,0.86835 0.75,1.625 -0.7201,0.86357 -5.3664,0.44586 -11.906,2.3438 -12.282,3.5644 -23.709,9.0859 -28.344,13.688 -2.063,2.0483 -6.4754,6.0521 -9.8125,8.9062 -11.761,10.059 -19.216,24.455 -19.375,37.406 -0.045,3.663 0.4053,5.0174 2.0313,6.1562 2.4213,1.696 3.8724,6.9962 3.9062,14.344 0.035,7.6092 -1.269,10.12 -6.4375,12.406 -4.8742,2.1561 -8.0179,1.8642 -13.062,-1.1562 -1.65,-0.98793 -4.35,-1.9461 -6,-2.125 -2.4697,-0.2678 -3.0494,0.0852 -3.3125,1.9375 -0.1757,1.2375 -0.9511,2.25 -1.7187,2.25 -2.208,0 -8.3779,5.934 -10.5,10.094 -1.0646,2.0867 -2.4917,6.968 -3.1563,10.844 -2.9239,17.051 4.7234,48.482 15.219,62.562 5.692,7.6364 6.014,7.8241 8.6875,5.3125 1.7237,-1.6193 3.0065,-1.9452 5.75,-1.5 3.4001,0.5518 3.5248,0.4646 2.9062,-2 -0.4847,-1.9314 -0.2962,-2.4682 0.75,-2.125 0.7651,0.251 1.7842,2.2168 2.25,4.375 0.4658,2.1582 1.4801,5.4759 2.2813,7.3438 1.4455,3.3702 1.477,3.3797 2.9687,1.25 0.9584,-1.3683 2.561,-2.1563 4.4375,-2.1563 3.3726,0 3.8335,-1.7331 1.4063,-5.4375 -1.802,-2.7501 -0.3752,-4.3614 1.6875,-1.9062 0.7498,0.8925 2.2437,3.4517 3.3437,5.6875 2.2187,4.5096 4.5,5.9254 4.5,2.8125 0,-3.7245 1.1635,-5.1563 4.125,-5.1563 3.7472,0 3.8738,-2.7052 0.3125,-6.9375 -1.8232,-2.1668 -3.4973,-3.0625 -5.5937,-3.0625 -3.0787,0 -6.8428,-1.5283 -6.8438,-2.7812 -3e-4,-0.3932 1.6872,-0.7188 3.75,-0.7188 3.3341,0 3.75,-0.2777 3.75,-2.5 0,-2.0216 -1.0213,-3.0289 -5.4062,-5.25 -2.9824,-1.5107 -6.2242,-3.5909 -7.1875,-4.625 -3.1786,-3.4118 -7.9063,-13.35 -7.9063,-16.625 l 0,-3.2187 10.75,-0.5938 c 17.132,-0.9301 28.146,-5.6329 35.312,-15.125 2.1777,-2.8843 3.9375,-5.5437 3.9375,-5.9062 0,-0.3626 -1.0949,-0.6563 -2.4375,-0.6563 -3.5607,0 -3.8831,-1.435 -1.0937,-4.75 2.8164,-3.3472 11.368,-7.4825 20.219,-9.75 4.8914,-1.2531 7.7349,-1.356 14.719,-0.5625 4.756,0.5404 9.6324,1.6828 10.844,2.5313 3.5249,2.4689 5.0185,1.9815 4.2813,-1.375 -1.0773,-4.9046 0.3208,-4.8662 13.969,0.4375 14.797,5.7503 23.164,8.3967 26.75,8.4375 4.1727,0.047 5.0963,-1.1652 8.2188,-10.719 2.2079,-6.7555 3.6945,-5.9744 1.8437,0.96878 -1.3817,5.1833 -3.3298,26.56 -2.5625,28.031 0.2152,0.4125 1.2984,0.75 2.4375,0.75 2.2316,0 2.2401,-0.7957 0.1875,13.594 -0.4941,3.4639 -0.2823,4.1767 1.3125,4.5937 1.0601,0.2772 1.9371,1.5001 2.0313,2.75 0.4948,6.5689 4.5549,14.879 10.969,22.562 8.0608,9.6569 10.037,13.926 11.531,24.719 1.2908,9.3254 2.3683,11.052 8.4687,13.75 3.7594,1.6629 4.3549,2.3955 4.9063,5.8437 0.6249,3.9081 0.6544,3.9302 5,3.8125 5.1295,-0.1389 6.0939,-1.5835 3.9375,-5.9062 -2.1134,-4.2364 -1.8864,-5.3627 0.625,-3.125 2.707,2.4119 4.8437,7.4548 4.8437,11.375 0,3.4083 0.2353,3.5273 3.0313,1.7812 1.581,-0.9874 2.3876,-0.9874 3.9687,0 5.0559,3.1575 5.296,0.032 0.6875,-9.125 -1.8326,-3.6412 -2.8451,-6.6037 -2.25,-6.5937 2.2226,0.037 7.8852,8.2309 8.8438,12.812 0.5347,2.5556 1.4149,5.2187 1.9687,5.9062 1.3202,1.6388 2.2335,1.5774 3.75,-0.25 1.4844,-1.7886 5.594,-1.9807 6.625,-0.3125 1.1053,1.7885 2.1662,-2.0503 1.4688,-5.3125 -0.5191,-2.4278 -5.6376,-7.6238 -14.156,-14.375 -3.3523,-2.6568 -4.4281,-4.5 -2.625,-4.5 0.7829,0 2.9505,1.3588 4.8125,3 3.8138,3.3615 4.7342,3.5728 7.3125,1.6875 2.4599,-1.7987 1.3419,-5.0091 -3.3437,-9.5937 -3.6442,-3.5656 -10.16,-6.0938 -15.719,-6.0938 -2.5472,0 -2.6168,-0.1243 -1.9687,-4.75 1.7173,-12.257 1.7908,-23.947 0.1875,-33.25 -0.6381,-3.7746 -1.5348,-7.8793 -2.0938,-11.562 l 0.5,-8.4687 0,-2.0625 c 0,-1.6365 1.3792,-7.5675 3.0625,-13.188 4.9731,-16.603 3.2532,-22.229 -9.5625,-31.344 -4.2318,-3.0097 -2.3361,-4.0674 3.5,-1.9688 5.4015,1.9424 9.314,1.3853 8.8125,-1.2188 -0.4005,-2.0795 -8.5899,-8.2854 -15.219,-11.531 -5.3993,-2.6438 -9.3807,-6.1818 -8.2188,-7.3438 1.9676,-1.9675 20.283,7.2151 26.469,13.281 2.2989,2.2545 4.0504,2.6413 18.656,3.9062 4.961,0.42965 4.9919,0.39773 1.6563,-0.84375 -4.2429,-1.5792 -6.1563,-4.1394 -6.1563,-8.3125 0,-2.2399 0.6444,-3.6183 2,-4.3438 1.0897,-0.58318 2.5522,-2.146 3.25,-3.4688 1.3976,-2.6492 8.0469,-7.5312 10.25,-7.5312 0.7681,0 1.6199,-0.38045 1.9063,-0.84375 0.43,-0.69582 8.2017,-0.83375 15.812,-0.28125 1.6942,0.15478 4.8103,0.79428 6.5625,1.6562 -1.1584,-1.8719 -2.6408,-4.4619 -3.6875,-6.0625 -0.7297,-0.45097 -1.0083,-4.5957 -0.5313,-12.969 0.6739,-11.828 0.602,-12.546 -2.0312,-19.438 -2.7971,-7.3197 -4.8062,-10.327 -11.938,-17.844 -5.645,-5.9504 -18.687,-14.278 -26.125,-16.688 -3.4261,-1.1101 -6.1708,-2.4812 -6.0938,-3.0312 0.2149,-1.5345 7.512,-0.80374 10.312,1.0312 1.369,0.89698 2.7732,1.3518 3.0938,1.0312 0.3206,-0.32059 -0.1755,-4.0703 -1.0938,-8.3438 -2.2198,-10.33 -2.1052,-19.824 0.375,-31.188 1.943,-8.9022 1.8834,-17.168 -0.094,-13.969 -0.9149,1.4803 -1.1447,0.67579 -2.8125,-10.062 -0.5552,-3.575 -2.7647,-11.45 -4.9062,-17.5 -3.7704,-10.652 -5.7768,-15.401 -7.0625,-15.5 z m -35.094,62.906 c 2.0504,-0.0981 4.1456,1.1248 6.5625,3.6875 1.866,1.9786 4.0475,4.8019 4.8125,6.2812 1.8672,3.6107 4.5313,16.961 4.5313,22.594 0,4.0332 -0.2521,4.531 -2.25,4.5625 -3.0365,0.0478 -6.1185,1.903 -8.7188,5.2188 -1.4904,1.9006 -3.0688,2.75 -5.125,2.75 -1.8814,0 -3.83,0.90287 -5.2812,2.4688 l -2.3125,2.4688 -1.6875,-6.1562 c -0.9424,-3.3896 -3.0492,-9.2546 -4.6563,-13.031 -2.6389,-6.2014 -2.7997,-7.3133 -1.875,-11.625 0.573,-2.6716 2.2055,-6.0926 3.7188,-7.75 1.4873,-1.629 4.1975,-4.8403 6.0312,-7.1562 2.2041,-2.7838 4.1996,-4.2144 6.25,-4.3125 z m 33.562,64.094 c 2.1774,-0.004 4.6454,0.8438 7.9063,2.4688 6.8367,3.4069 10.741,9.3499 10.188,15.531 -0.6778,7.568 -2.5363,10.213 -8.25,11.688 -10.89,2.8092 -17.632,1.0311 -21.312,-5.5625 -1.9929,-3.57 -2.2,-4.9602 -1.5938,-9.8125 0.6114,-4.8936 1.2739,-6.2114 5.0313,-9.9688 2.9238,-2.9238 5.2317,-4.338 8.0312,-4.3438 z m 37,68.031 c -1.3262,0.019 -2.961,0.50985 -4.1875,1.4375 -1.0676,0.8075 -3.8259,1.4825 -6.125,1.5 -4.121,0.0313 -4.1849,0.0823 -3.375,2.9062 0.4518,1.5755 2.4527,6.0765 4.4375,10.031 4.1463,8.2617 4.1103,8.0937 2.0938,8.0937 -1.3629,0 -1.3755,0.3069 -0.031,2.9063 2.0325,3.9304 8.2007,8.9009 12.781,10.281 2.0625,0.6215 3.75,1.6746 3.75,2.3438 0,1.8879 5.0927,2.4434 12.125,1.3437 12.623,-1.9739 14.688,-2.097 16.531,-1.0625 2.2309,1.3658 4.1957,3.58 6.1875,5.375 0.059,0.4821 0.3786,0.5751 -0.024,1.2398 -1.3394,1.6589 -2.508,2.3024 -3.8201,4.0102 2.6463,0.077 5.3085,1.717 5.9375,5 1.568,-0.9662 2.6929,-2.7676 3.5625,-4 2.2643,-3.2089 1.9361,-3.5125 2.75,-1.3125 0.2763,3.2746 -1.8037,3.7413 -3.9688,6.2813 2.9192,-1.0558 6.7863,1.95 8.8438,4.5937 0.4828,0 0.8887,-2.8125 0.9062,-6.25 0.03,-5.842 0.1444,-6.1194 1.5938,-4.25 1.1743,1.5148 1.4047,3.3344 0.9375,7.5 -0.3394,3.025 -1.5573,4.7315 -2.1563,4.9375 2.4597,0.042 2.1954,0.4782 3.75,1.3125 1.1396,-0.4091 2.8387,-1.4628 3.8125,-3.0312 2.7623,-4.4489 3.3068,-5.427 -3.125,-14.031 -2.667,-3.5678 -4.6709,-6.7041 -4.4375,-6.9375 0.9314,-0.9314 4.6635,1.9843 6.0938,4.75 1.7347,3.3546 4.0282,3.1227 4.9375,-0.5 0.6917,-2.7561 -0.5529,-6.5515 -2.75,-8.375 -0.8502,-0.7056 -4.2453,-2.0988 -7.5313,-3.0937 -3.286,-0.995 -6.9707,-2.7101 -8.1875,-3.8438 -1.428,-1.3304 -4.2153,-2.2824 -7.8437,-2.6875 -10.516,-1.174 -16.445,-2.4765 -18.094,-3.9687 -1.141,-1.0326 -1.9652,-1.1911 -2.6875,-0.4688 -1.822,1.822 -6.2867,-0.1656 -11.25,-5 -4.4098,-4.2952 -9.0937,-12.353 -9.0937,-15.687 0,-0.90989 -1.0176,-1.3628 -2.3438,-1.3438 z"
         sodipodi:nodetypes="cssssssssscccscccsccccscccsccsssssssscccsssssssssssssssccsccssssssssssssssssssssssssssssscsssssccssssssssscsssssscssssssssssscsssssssssssscccssssssssssssssscccsssscsssscsscsssscsscccssssscsssssscsccssscssscccccscccsssccssssssssssssss"
         style="fill:#c87137"
         inkscape:connector-curvature="0" />
      <path
         id="path3831"
         d="m 466.77,688.33 c -1.8336,1.2843 -2.7472,1.3643 -4.7812,0.4375 -4.0052,-1.8248 -7.7795,1.6223 -3.1834,7.0346 0.8133,1.0383 3.1131,2.6712 3.1832,3.9325 -2.3623,1.1458 -5.0219,1.4369 -7.6071,2.0624 -3.3508,0.62861 -6.3343,-1.2676 -10.112,-2.717 -0.9293,-0.35661 -1.5937,-0.0983 -1.5937,0.625 1.8245,3.1153 4.5119,5.8018 8.0683,5.6047 4.3535,-1.4614 12.138,-3.636 15.307,-3.636 3.4212,0 8.2104,-2.3923 9.0312,-4.5312 1.0352,-2.6978 0.8667,-6.6877 -0.1875,-10.094 -1.8088,-0.56138 -5.7828,-0.5006 -8.125,1.2813 z"
         sodipodi:nodetypes="cscccsccsscc"
         style="fill:#917c6f"
         inkscape:connector-curvature="0" />
      <path
         id="path3833"
         sodipodi:nodetypes="cssssssssssssssssssssssssscsssssssssssssscssssssscccssscssccsssssssscsscsssscsssssscsssssscssc"
         style="fill:#c87137"
         inkscape:connector-curvature="0"
         d="m 165.62,726.38 c -10.074,-7.6899 -14.893,-13.348 -11.368,-13.348 1.6957,0 1.1342,-1.5996 -2.4107,-6.8673 -3.9303,-5.8404 -8.1238,-14.392 -9.0139,-18.383 -0.4699,-2.1065 -0.2405,-2.75 0.9806,-2.75 1.3936,0 1.5051,-1.1387 0.8862,-9.05 -0.4647,-5.9404 -0.2701,-11.61 0.5664,-16.5 1.1632,-6.8006 1.4799,-7.45 3.6329,-7.45 1.2972,0 2.3585,-0.22796 2.3585,-0.50658 0,-3.0835 3.4206,-22.161 4.6605,-25.993 2.376,-7.3431 7.3676,-16.881 8.3073,-15.873 0.448,0.48034 0.3488,5.6475 -0.2204,11.483 -0.5692,5.835 -0.6834,11.91 -0.2538,13.5 0.6545,2.4221 1.0755,1.2695 2.5966,-7.1092 2.5152,-13.854 5.9702,-27.5 6.9627,-27.5 0.456,0 1.1072,0.45 1.4471,1 1.1594,1.8759 2.4578,1.003 4.5195,-3.0382 2.5916,-5.08 4.5833,-8.2842 12.65,-15.453 10.509,-9.3391 18.277,-13.659 18.334,-12.392 0.087,1.9175 -4.0704,8.2873 -7.9295,13.955 -6.011,8.8286 -9.7921,18.593 -11.121,26.609 -1.014,6.114 -0.4686,11.318 1.186,11.318 0.5387,0 0.6688,-0.50282 0.289,-1.1174 -0.6385,-1.0331 0.3797,-7.1956 2.6439,-16.002 0.9722,-3.781 6.0202,-13.154 13.939,-25.881 4.6222,-7.4285 6.9894,-15.103 6.9894,-22.659 l 0,-3.3258 -7.25,7.0698 c -8.0708,7.8702 -13.542,11.193 -17.712,10.755 -1.8704,-0.1962 -4.5639,0.89027 -8.2119,3.3124 -2.9857,1.9824 -7.4304,4.6259 -9.8771,5.8744 -6.2037,3.1656 -46.472,13.783 -47.683,12.572 -0.7556,-0.75557 8.8763,-10.599 10.371,-10.599 0.7498,0 1.3632,-0.3596 1.3632,-0.79911 0,-0.43951 1.4837,-1.3356 3.297,-1.9913 1.8134,-0.65571 4.1759,-1.8737 5.25,-2.7067 1.8129,-1.4059 1.7379,-1.438 -1.047,-0.44792 -8.6663,3.0811 -17.469,8.2822 -22.68,13.401 -3.1241,3.0685 -5.949,5.1444 -6.2774,4.613 -0.8029,-1.2992 1.1215,-13.364 3.1213,-19.569 2.9396,-9.1196 3.6246,-10.636 7.5476,-16.705 2.1412,-3.3129 3.6913,-6.2254 3.4446,-6.4721 -0.2468,-0.24673 -3.0074,2.9512 -6.1347,7.1065 -3.1274,4.1553 -6.099,7.8102 -6.6036,8.1221 -1.4139,0.87383 -1.0895,-8.6028 0.5636,-16.461 2.6907,-12.791 5.372,-19.065 11.575,-27.084 7.2457,-9.3664 11.163,-12.586 21.854,-17.961 4.5635,-2.2945 8.1214,-4.3477 7.9064,-4.5627 -1.2208,-1.2208 -14.059,1.8855 -20.568,4.9764 -4.1477,1.9697 -7.6886,3.434 -7.8687,3.2539 24.414,-31.614 62.602,-32.466 79.239,-31.599 -13.812,-4.9761 -27.982,-3.4363 -39.119,-1.6138 l 3.5422,-2.7102 c 9.7355,-7.4488 29.18,-12.384 44.958,-11.411 12.768,0.78749 21.971,3.4614 29.5,8.5717 1.65,1.1199 3.4002,2.0391 3.8893,2.0428 0.4891,0.004 0.6228,-2.2434 0.2971,-4.9934 -0.4182,-3.5314 -0.2425,-5 0.5982,-5 0.6547,0 4.121,3.0596 7.7029,6.7992 18.391,16.998 20.329,28.014 15.711,45.401 -0.4401,1.9093 0.2007,3.4112 0.9259,1.4342 2.2309,-6.0815 3.2188,-8.726 3.0283,-14.762 -0.2114,-6.7024 -1.6858,-11.502 -4.0922,-16.62 -2.0854,-4.436 -5.4099,-7.5328 -6.2869,-8.502 -2.7702,-3.0611 -0.5045,-3.137 4.0936,-0.13718 10.606,6.9196 23.914,26.953 27.21,40.963 1.6091,6.8392 1.5609,20.582 -0.087,24.674 -1.2173,3.024 1.5368,1.9716 5.1427,-1.9651 l 3.4029,-3.7151 -0.6609,3.4651 c -2.9868,15.661 -16.804,32.58 -34.609,42.379 -4.5462,2.502 -8.0409,4.5525 -7.7659,4.5567 0.275,0.004 2.7189,-0.66547 5.4308,-1.4881 5.4404,-1.6504 13.031,-5.7071 21.819,-11.661 8.705,-5.8978 7.5846,-2.1918 -4.5107,14.92 -5.4443,7.7025 -15.375,16.976 -21.719,20.282 l -2.4795,1.2921 2.2295,0.99482 c 1.2262,0.54715 2.2294,1.3347 2.2294,1.7502 0,0.41546 -2.7183,1.6734 -6.0406,2.7953 -6.1349,2.0718 -12.835,6.6022 -16.459,11.13 -3.2105,4.0104 -11.5,12.162 -18.287,17.985 -11.757,10.086 -17.69,20.793 -19.363,34.95 l -1.0714,9.0616 3.0434,3.4662 c 3.8022,4.3305 4.9551,10.695 3.036,16.76 -1.1523,3.6419 -1.9384,4.48 -5.2018,5.5454 -3.3925,1.1076 -4.3911,1.0132 -8.4968,-0.80296 -2.5589,-1.1319 -6.5534,-2.3186 -8.8765,-2.637 -3.9403,-0.54008 -4.3435,-0.36907 -6.0032,2.5466 -0.9785,1.7191 -2.1133,3.1284 -2.5216,3.1319 -1.6503,0.014 -6.0777,4.7847 -8.5894,9.2553 -1.4675,2.6119 -3.1962,4.7494 -3.8416,4.75 -0.6454,5e-4 -3.3265,-1.6425 -5.9581,-3.6513 z" />
      <path
         id="path3837"
         sodipodi:nodetypes="ssss"
         d="m 513.31,772.36 c 1.5767,-1.4613 3.1644,-0.2255 3.1644,1.1089 0,0.6827 -3.8733,2.1708 -5.3775,1.9264 -2.1833,-0.3546 1.0311,-1.9399 2.2131,-3.0353 z"
         style="fill:#000000"
         inkscape:connector-curvature="0" />
      <path
         id="path3854"
         d="m 233.5,474.26 c 5.019,4.1234 10.501,8.1182 13.732,14.181 5.5648,12.02 6.2773,26.567 2.5809,41.879 -1.4808,-11.145 -3.7141,-16.645 -7.8287,-18.76 -14.057,17.191 -1.995,44.881 -8.4838,59.822 -1.6875,-1.3125 -3.7512,-8.2687 -5.4387,-9.5812 -8.4065,16.44 6.3131,23.044 -15.76,53.033 -2.4659,-2.0455 -0.5342,-9.0974 -1.9477,-17.625 -16.229,13.535 -21.496,40.52 -18.623,58.847 -3.9732,-0.83686 -3.5568,-7.7076 -6.4988,-15.282 -7.6338,27.729 -8.4946,55.961 27.353,68.512 -14.909,-25.347 -10.699,-67.098 17.038,-80.201 3.6257,-1.2227 5.1584,-2.7491 8.4889,-4.9577 -1.7166,-1.1211 -3.1366,-1.3334 -5.0979,-1.408 16.909,-7.9027 40.408,-20.801 47.146,-35.831 -13.508,3.3902 -17.319,6.5427 -28.057,7.5713 16.338,-13.189 58.076,-38.319 37.374,-90.117 -4.6035,17.473 -9.8185,20.189 -15.396,20.825 2.3831,-22.945 -12.992,-49.315 -40.581,-50.909 z"
         sodipodi:nodetypes="ccccccccccccccccccc"
         style="opacity:0.95609999;fill:url(#linearGradient4904)"
         inkscape:connector-curvature="0" />
      <path
         id="path3871"
         d="m 225.81,775.1 c -11.318,-4.1242 -14.5,-6.316 -14.5,-9.9891 0,-2.3326 0.3277,-2.4487 6.912,-2.4487 7.9221,0 19.806,-2.1855 25.441,-4.6787 7.2962,-3.228 19.584,-17.369 18.249,-21.002 -0.297,-0.808 -1.7791,-1.4691 -3.2936,-1.4691 -2.7267,0 -2.7343,-0.019 -0.7813,-1.9564 2.3377,-2.3191 13.751,-6.8963 21.414,-8.5878 6.3689,-1.4059 17.11,0.2133 23.271,3.5081 4.4236,2.3657 6.1947,1.5952 5.4361,-2.3652 -0.3036,-1.5855 -0.3191,-3.126 -0.034,-3.4234 0.2848,-0.29734 3.0754,0.55603 6.2014,1.8964 3.126,1.3403 9.6305,4.1421 14.454,6.2262 4.8815,2.1089 11.533,4.1073 15,4.5067 l 6.2294,0.7175 0.2874,9.0253 c 0.2571,8.0762 0.502,9.0839 2.3291,9.5828 1.4577,0.3981 1.9476,1.2514 1.7126,2.9832 -0.3044,2.2436 -0.8617,2.4484 -7.4245,2.7292 -6.0586,0.2592 -8.5425,-0.2408 -17,-3.4222 -23.852,-8.9724 -31.287,-9.1341 -49.655,-1.08 -1.4071,0.617 -1.75,0.2339 -1.75,-1.9549 0,-1.4973 -0.4909,-2.7223 -1.091,-2.7223 -0.6,0 -4.9875,4.0476 -9.75,8.9947 -11.423,11.866 -18.051,15.326 -30.142,15.735 -4.6845,0.1584 -9.8673,-0.2039 -11.517,-0.8051 z"
         style="fill:url(#linearGradient4901)"
         inkscape:connector-curvature="0" />
      <path
         id="path3889"
         sodipodi:nodetypes="cccscccccccccccccccc"
         style="fill:url(#linearGradient4898)"
         inkscape:connector-curvature="0"
         d="m 395.55,691.81 c 7.1044,4.7429 15.861,7.4199 22.354,15.076 2.417,5.9895 -7.1549,5.22 -10.741,3.5485 -1.4114,-0.2738 -0.8227,0.65189 0.3537,1.4388 7.3083,4.889 11.992,12.41 9.6883,23.071 -1.2477,7.4118 -6.7468,18.734 -5.817,30.282 7.0532,-3.6368 14.039,-10.783 21.738,-10.114 3.0366,-0.2231 6.9417,-0.6551 10.922,2.551 -3.0383,8.3522 16.957,2.1422 19.594,2.3361 5.5097,-0.068 8.5799,-0.9086 9.8571,1.0663 1.6157,-0.3306 17.76,-7.4151 24.131,-9.4761 -2.1018,-2.7382 -4.8485,-3.7226 -4.5878,-3.9511 -6.5719,-1.7278 -21.094,4.8257 -27.493,0.4568 -2.2208,-4.4677 -7.7411,-3.109 -10.559,-6.3602 -3.6433,-3.1286 -8.7666,-6.9448 -7.7773,-12.293 3.4302,-1.4848 -1.2179,-6.6166 -2.4719,-8.8574 -1.1083,-4.3097 -5.6852,-8.4397 -2.8111,-12.856 -8.0857,-1.5188 -20.506,0.7708 -26.728,-6.8179 -5.7788,-4.3566 -12.18,-7.999 -18.908,-10.554 -1.4374,-0.48174 -1.6113,0.59725 -0.7448,1.4533 z" />
      <path
         id="path3899"
         d="m 386.05,575.92 c -1.9476,0.0931 -3.8432,1.4521 -5.9369,4.0965 -1.7418,2.2 -4.346,5.2504 -5.7587,6.7977 -1.4375,1.5744 -2.9882,4.8239 -3.5325,7.3617 -0.8784,4.0957 -0.696,5.1816 1.8107,11.072 1.5266,3.5874 3.4982,9.129 4.3933,12.349 l 1.6327,5.8775 2.1669,-2.3748 c 1.3786,-1.4874 3.2296,-2.3451 5.0167,-2.3451 1.9532,0 3.4525,-0.8069 4.8683,-2.6122 2.4699,-3.1496 5.4273,-4.9119 8.3116,-4.9573 1.8978,-0.0299 2.1373,-0.50277 2.1373,-4.3339 0,-5.3507 -2.5603,-18.032 -4.3339,-21.462 -0.7267,-1.4052 -2.7692,-4.0872 -4.5418,-5.9666 -2.2958,-2.4343 -4.286,-3.596 -6.2337,-3.5028 z"
         style="fill:url(#linearGradient4895)"
         inkscape:connector-curvature="0" />
      <path
         id="path3909"
         d="m 356.21,656.07 c -11.154,1.3392 -12.838,11.393 -9.9298,20.696 -18.212,-12.555 -39.188,-19.11 -59.037,-18.776 0.099,-4.9785 6.1611,-4.9874 5.7974,-8.4382 -17.131,-5.6464 -34.632,-4.175 -53.265,-1.5595 20.617,-16.41 36.655,-20.065 64.872,-12.059 3.5264,-4.201 -7.8529,-7.7309 -4.3173,-12.043 15.442,-0.0201 40.49,16.32 55.879,32.181 z"
         sodipodi:nodetypes="cccccccc"
         style="color:#000000;fill:url(#linearGradient4892)"
         inkscape:connector-curvature="0" />
      <path
         id="path3919"
         d="m 463.77,671.28 c 6.2708,-22.136 -5.5171,-39.3 -19.753,-49.665 -7.3459,-5.3483 -16.179,-8.2775 -24.268,-12.416 0.1881,4.3896 8.9046,8.2775 9.5944,12.416 -3.0727,2.8219 -7.6504,-0.87791 -10.723,1.6931 9.9079,14.674 30.602,15.552 39.506,36.496 1.1288,2.571 2.2575,9.4062 5.6438,11.476 z"
         sodipodi:nodetypes="csccccc"
         style="color:#000000;fill:url(#linearGradient4889)"
         inkscape:connector-curvature="0" />
      <path
         id="path3929"
         d="m 397.74,718.13 c 16.806,4.8912 11.05,20.075 9.03,30.476 -1.7629,9.0792 -3.8701,17.577 -0.5017,26.651 4.42,11.907 3.6607,30.405 2.7592,39.381 -3.1981,3.9507 -5.1421,5.1421 -9.5944,11.852 2.8846,-18.562 -6.2708,-25.585 -5.6437,-42.892 -2.0694,4.8912 -4.1387,9.7825 -6.2081,14.674 -7.2115,-21.822 5.1421,-37.876 6.2081,-56.437 l -4.515,0 c 4.84,-7.4976 10.11,-14.909 8.4656,-23.704 z"
         sodipodi:nodetypes="cssccccccc"
         style="color:#000000;fill:url(#linearGradient4886)"
         inkscape:connector-curvature="0" />
      <path
         id="path3947"
         d="m 220.4,480.71 c -23.892,-3.8223 -48.787,4.4469 -72.679,15.614 10.221,4.5777 22.199,-5.8319 26.149,0.18812 -31.668,13.67 -50.041,38.754 -52.675,55.121 7.1488,-2.3829 12.918,-10.347 18.185,-5.8319 -10.096,10.472 -16.68,24.08 -17.057,35.744 18.624,-8.8419 33.549,-25.961 43.833,-45.526 2.6337,5.2055 -3.2608,7.1267 0.6271,18.499 20.66,-43.107 31.915,-63.48 53.616,-73.808 z"
         sodipodi:nodetypes="ccccccccc"
         style="color:#000000;fill:url(#linearGradient4883)"
         inkscape:connector-curvature="0" />
      <path
         id="path3957"
         d="m 423.93,648.33 c -2.3183,-1.7308 -4.2449,-2.3169 -5.3511,-2.8985 -3.0843,1.2634 -4.8309,3.4188 -5.9085,6.5774 1.9695,0.74321 3.716,1.8209 6.02,3.233 0.5574,-2.8614 3.01,-5.1653 5.2396,-6.9118 z"
         sodipodi:nodetypes="ccccc"
         style="color:#000000;fill:#ffffff;stroke:#000000;stroke-width:0.40000001"
         inkscape:connector-curvature="0" />
    </g>
  </g>
  <metadata
     id="metadata92">
    <rdf:RDF>
      <cc:Work>
        <dc:format>image/svg+xml</dc:format>
        <dc:type
           rdf:resource="http://purl.org/dc/dcmitype/StillImage" />
        <cc:license
           rdf:resource="http://creativecommons.org/publicdomain/zero/1.0/" />
        <dc:publisher>
          <cc:Agent
             rdf:about="http://openclipart.org/">
            <dc:title>Openclipart</dc:title>
          </cc:Agent>
        </dc:publisher>
        <dc:title></dc:title>
      </cc:Work>
      <cc:License
         rdf:about="http://creativecommons.org/publicdomain/zero/1.0/">
        <cc:permits
           rdf:resource="http://creativecommons.org/ns#Reproduction" />
        <cc:permits
           rdf:resource="http://creativecommons.org/ns#Distribution" />
        <cc:permits
           rdf:resource="http://creativecommons.org/ns#DerivativeWorks" />
      </cc:License>
    </rdf:RDF>
  </metadata>
</svg>
